<svg xmlns="http://www.w3.org/2000/svg" width="85.058" height="80" viewBox="0 0 85.058 80">
  <g id="Phanes_unique_9bce6c7" data-name="Phanes_unique=9bce6c7" transform="translate(-8.42 -9.83)">
    <path id="Path_1" data-name="Path 1" d="M74.595,9.83a22.687,22.687,0,0,0-3.259.24V47.822a15.891,15.891,0,0,1-4.563-29.4V11.241a22.422,22.422,0,0,0,4.563,43.2v12.75l6.519-6.519V16.683a15.891,15.891,0,0,1,4.563,29.4V53.26A22.418,22.418,0,0,0,74.595,9.83Z" transform="translate(-24.938)" fill="#fff"/>
    <g id="Group_1" data-name="Group 1" transform="translate(8.42 70.004)">
      <path id="Path_2" data-name="Path 2" d="M87.815,177.091v-1.377a4.556,4.556,0,0,1-3.731,1.7c-3.448,0-6.034-2.818-6.034-6.561s2.586-6.561,6.034-6.561A4.528,4.528,0,0,1,87.815,166v-1.377H91.1v12.467Zm-6.33-6.24a3.223,3.223,0,1,0,3.216-3.435A3.209,3.209,0,0,0,81.485,170.851Z" transform="translate(-48.145 -158.123)" fill="#fff"/>
      <path id="Path_3" data-name="Path 3" d="M127.575,169.153v7.938h-3.358v-6.857c0-1.814-.888-2.792-2.432-2.792a2.549,2.549,0,0,0-2.637,2.818v6.832H115.79V164.625h3.268v1.467a4.163,4.163,0,0,1,3.667-1.8A4.643,4.643,0,0,1,127.575,169.153Z" transform="translate(-69.677 -158.123)" fill="#fff"/>
      <path id="Path_4" data-name="Path 4" d="M160.314,170.839a9.625,9.625,0,0,1-.064,1.132h-8.839a2.993,2.993,0,0,0,3.2,2.586,4.994,4.994,0,0,0,3.152-1.2l1.968,2.161a7.566,7.566,0,0,1-5.313,1.891,6.179,6.179,0,0,1-6.471-6.523c0-3.911,2.573-6.6,6.3-6.6C157.844,164.29,160.314,166.953,160.314,170.839Zm-8.89-1.158h5.519a2.774,2.774,0,0,0-5.519,0Z" transform="translate(-88.024 -158.123)" fill="#fff"/>
      <path id="Path_5" data-name="Path 5" d="M186.071,167.1c-1.287,0-1.917.45-1.917,1.132,0,.733.9.9,2.033,1.068l1.106.167c2.715.412,4.207,1.608,4.207,3.731,0,2.573-2.11,4.233-5.725,4.233a10.043,10.043,0,0,1-5.545-1.467l1.325-2.547a7.3,7.3,0,0,0,4.246,1.222c1.557,0,2.3-.437,2.3-1.171,0-.6-.618-.939-2.071-1.145l-1.016-.142q-4.3-.6-4.31-3.782c0-2.56,1.981-4.078,5.262-4.078a10.976,10.976,0,0,1,5.211,1.184l-1.132,2.612A10.046,10.046,0,0,0,186.071,167.1Z" transform="translate(-106.442 -158.14)" fill="#fff"/>
      <path id="Path_6" data-name="Path 6" d="M15.766,152.14H8.42v18.869l3.589-3.589v-3.855h3.782c4.271,0,6.561-2.239,6.561-5.7C22.353,154.379,20.063,152.14,15.766,152.14Zm-.064,8.144H12.009v-4.837H15.7c1.968,0,2.972.811,2.972,2.419C18.674,159.5,17.67,160.284,15.7,160.284Z" transform="translate(-8.42 -151.184)" fill="#fff"/>
      <path id="Path_7" data-name="Path 7" d="M52.825,156.077a4.167,4.167,0,0,0-3.577,1.673V149.91l-3.358,3.358v15.61h3.358v-6.832a2.549,2.549,0,0,1,2.637-2.818c1.544,0,2.432.978,2.432,2.792v6.857h3.358V160.94A4.643,4.643,0,0,0,52.825,156.077Z" transform="translate(-29.797 -149.91)" fill="#fff"/>
    </g>
  </g>
</svg>
