<svg id="Phanes_unique_9bce6c7" data-name="Phanes_unique=9bce6c7" xmlns="http://www.w3.org/2000/svg" width="106.323" height="100" viewBox="0 0 106.323 100">
  <path id="Path_1" data-name="Path 1" d="M80.236,9.83a28.4,28.4,0,0,0-4.079.3V57.38a19.889,19.889,0,0,1-5.711-36.794V11.6a28.063,28.063,0,0,0,5.711,54.066V81.619l8.158-8.158V18.407A19.889,19.889,0,0,1,90.026,55.2v8.985A28.058,28.058,0,0,0,80.236,9.83Z" transform="translate(-28.688 -9.83)" fill="#f2396b"/>
  <g id="Group_1" data-name="Group 1" transform="translate(0 75.186)">
    <path id="Path_2" data-name="Path 2" d="M90.272,180.312v-1.723a5.7,5.7,0,0,1-4.67,2.125c-4.315,0-7.552-3.526-7.552-8.212s3.237-8.212,7.552-8.212a5.667,5.667,0,0,1,4.67,2.142v-1.723h4.106v15.6Zm-7.922-7.81a4.034,4.034,0,1,0,4.026-4.3A4.016,4.016,0,0,0,82.349,172.5Z" transform="translate(-40.677 -156.572)" fill="#f2396b"/>
    <path id="Path_3" data-name="Path 3" d="M130.54,170.377v9.935h-4.2v-8.582c0-2.27-1.111-3.494-3.043-3.494a3.19,3.19,0,0,0-3.3,3.526v8.55h-4.2v-15.6h4.09v1.836a5.211,5.211,0,0,1,4.589-2.254A5.812,5.812,0,0,1,130.54,170.377Z" transform="translate(-58.16 -156.572)" fill="#f2396b"/>
    <path id="Path_4" data-name="Path 4" d="M163.424,172.486a12.045,12.045,0,0,1-.081,1.417H152.281a3.747,3.747,0,0,0,4.009,3.237,6.251,6.251,0,0,0,3.945-1.5l2.464,2.705a9.469,9.469,0,0,1-6.65,2.367,7.734,7.734,0,0,1-8.1-8.164c0-4.9,3.22-8.26,7.89-8.26C160.333,164.29,163.424,167.623,163.424,172.486ZM152.3,171.037h6.908c-.386-2.013-1.578-3.124-3.4-3.124C153.811,167.913,152.668,169.088,152.3,171.037Z" transform="translate(-73.059 -156.572)" fill="#f2396b"/>
    <path id="Path_5" data-name="Path 5" d="M187.54,167.8c-1.61,0-2.4.564-2.4,1.417,0,.918,1.127,1.127,2.544,1.336l1.385.209c3.4.515,5.265,2.013,5.265,4.67,0,3.22-2.641,5.3-7.165,5.3a12.57,12.57,0,0,1-6.94-1.836l1.659-3.188a9.134,9.134,0,0,0,5.314,1.53c1.948,0,2.882-.547,2.882-1.465,0-.757-.773-1.175-2.593-1.433l-1.272-.177q-5.386-.749-5.394-4.734c0-3.2,2.48-5.1,6.586-5.1a13.737,13.737,0,0,1,6.521,1.481l-1.417,3.269A12.573,12.573,0,0,0,187.54,167.8Z" transform="translate(-88.013 -156.586)" fill="#f2396b"/>
    <path id="Path_6" data-name="Path 6" d="M17.614,152.14H8.42v23.617l4.493-4.493v-4.825h4.734c5.346,0,8.212-2.8,8.212-7.133C25.859,154.942,22.992,152.14,17.614,152.14Zm-.081,10.193H12.913v-6.054h4.621c2.464,0,3.72,1.014,3.72,3.027C21.253,161.35,20,162.333,17.534,162.333Z" transform="translate(-8.42 -150.943)" fill="#f2396b"/>
    <path id="Path_7" data-name="Path 7" d="M54.569,157.628a5.215,5.215,0,0,0-4.476,2.093V149.91l-4.2,4.2V173.65h4.2V165.1a3.19,3.19,0,0,1,3.3-3.526c1.932,0,3.043,1.224,3.043,3.494v8.582h4.2v-9.935A5.812,5.812,0,0,0,54.569,157.628Z" transform="translate(-25.778 -149.91)" fill="#f2396b"/>
  </g>
</svg>
